<?xml version="1.0" standalone="no"?>
<!DOCTYPE svg PUBLIC "-//W3C//DTD SVG 1.1//EN"
"http://www.w3.org/Graphics/SVG/1.1/DTD/svg11.dtd">

<svg width="414" height="120" view_box="0 0 414 120"
xmlns="http://www.w3.org/2000/svg"
xmlns:link="http://www.w3.org/1999/xlink">\n\n<desc>Généré par Mocodo 2.3.7 le Thu, 22 Apr 2021 10:09:16</desc>

<rect id="frame" x="0" y="0" width="414" height="120" fill="#f7f7f7" stroke="none" stroke-width="0"/>

<!-- Association belongs_to -->
<line x1="346" y1="60" x2="214" y2="60" stroke="#e08214" stroke-width="2"/>
<text x="260" y="77.0" fill="#542788" font-family="Verdana" font-size="12">1,N</text>
<line x1="75" y1="60" x2="214" y2="60" stroke="#e08214" stroke-width="2"/>
<text x="146" y="77.0" fill="#542788" font-family="Verdana" font-size="12">0,N</text>
<g id="association-belongs_to">
	<path d="M 241 35 a 14 14 90 0 1 14 14 V 60 h -82 V 49 a 14 14 90 0 1 14 -14" fill="#fdb863" stroke="#fdb863" stroke-width="0"/>
	<path d="M 255 60.0 v 11 a 14 14 90 0 1 -14 14 H 187 a 14 14 90 0 1 -14 -14 V 60.0 H 82" fill="#fee0b6" stroke="#fee0b6" stroke-width="0"/>
	<rect x="173" y="35" width="82" height="50" fill="none" rx="14" stroke="#e08214" stroke-width="2"/>
	<line x1="173" y1="60" x2="255" y2="60" stroke="#e08214" stroke-width="1"/>
	<text x="180" y="52.7" fill="#000000" font-family="Verdana" font-size="12">belongs_to</text>
</g>

<!-- Entity promotion -->
<g id="entity-promotion">
	<g id="frame-promotion">
		<rect x="9" y="18" width="132" height="25" fill="#b2abd2" stroke="#b2abd2" stroke-width="0"/>
		<rect x="9" y="43.0" width="132" height="59" fill="#d8daeb" stroke="#d8daeb" stroke-width="0"/>
		<rect x="9" y="18" width="132" height="84" fill="none" stroke="#8073ac" stroke-width="2"/>
		<line x1="9" y1="43" x2="141" y2="43" stroke="#8073ac" stroke-width="1"/>
	</g>
	<text x="43" y="35.7" fill="#000000" font-family="Verdana" font-size="12">promotion</text>
	<text x="14" y="60.8" fill="#000000" font-family="Verdana" font-size="12">id</text>
	<line x1="14" y1="63" x2="26" y2="63" stroke="#000000" stroke-width="1"/>
	<text x="14" y="77.8" fill="#000000" font-family="Verdana" font-size="12">name</text>
	<text x="14" y="94.8" fill="#000000" font-family="Verdana" font-size="12">github_organisation</text>
</g>

<!-- Entity student -->
<g id="entity-student">
	<g id="frame-student">
		<rect x="287" y="9" width="118" height="25" fill="#b2abd2" stroke="#b2abd2" stroke-width="0"/>
		<rect x="287" y="34.0" width="118" height="77" fill="#d8daeb" stroke="#d8daeb" stroke-width="0"/>
		<rect x="287" y="9" width="118" height="102" fill="none" stroke="#8073ac" stroke-width="2"/>
		<line x1="287" y1="34" x2="405" y2="34" stroke="#8073ac" stroke-width="1"/>
	</g>
	<text x="322" y="26.7" fill="#000000" font-family="Verdana" font-size="12">student</text>
	<text x="292" y="51.7" fill="#000000" font-family="Verdana" font-size="12">id</text>
	<line x1="292" y1="54" x2="304" y2="54" stroke="#000000" stroke-width="1"/>
	<text x="292" y="68.8" fill="#000000" font-family="Verdana" font-size="12">first_name</text>
	<text x="292" y="85.8" fill="#000000" font-family="Verdana" font-size="12">last_name</text>
	<text x="292" y="102.8" fill="#000000" font-family="Verdana" font-size="12">github_username</text>
</g>
</svg>